<?xml version="1.0" encoding="utf-8"?>
<!-- Generator: Adobe Illustrator 26.0.0, SVG Export Plug-In . SVG Version: 6.00 Build 0)  -->
<svg version="1.1" id="Layer_1" xmlns="http://www.w3.org/2000/svg" xmlns:xlink="http://www.w3.org/1999/xlink" x="0px" y="0px" fill="#e4e4e4"
	 viewBox="0 500 1000 1000" style="enable-background:new 0 0 1000 1000;" xml:space="preserve">
<g>
	<g>
		<path d="M558.57,81.07c13.84,31.86,30.06,62.41,48.41,91.57c122.53,30.96,210.98,116.3,241.37,233.51
			c29.08,16.87,59.54,31.78,91.08,44.39C918.54,248.65,768.66,103.43,558.57,81.07z M392.72,826.16
			C271.5,794.87,183.86,710.59,152.98,595.02c-29.16-16.95-59.63-31.94-91.24-44.64C83.2,750.4,232.51,895.04,441.61,918.05
			C427.61,886.03,411.23,855.4,392.72,826.16z M847.94,594.94c-30.8,115.98-118.6,200.5-239.98,231.54
			c-18.43,29.24-34.73,59.87-48.73,91.73C663,907.08,752.11,865.96,818.05,802.73c67.08-64.21,110.41-151.11,121.22-252.35
			C907.65,563.08,877.1,577.99,847.94,594.94z M61.58,450.46c31.53-12.61,61.92-27.52,91-44.47
			c30.55-116.71,118.84-201.81,241.13-233.02c18.35-29.24,34.65-59.87,48.49-91.73C232.27,104.17,82.55,249.47,61.58,450.46z"/>
	</g>
	<path d="M988.55,499.68c0,1.5,0,2.91-0.08,4.41c-252.26,31.4-452.18,231.24-483.66,483.58c-1.42,0.08-2.91,0.08-4.33,0.08
		s-2.91,0-4.33-0.08c-31.48-252.26-231.4-452.1-483.66-483.58c-0.08-1.5-0.08-2.91-0.08-4.41c0-1.42,0-2.83,0.08-4.25
		c252.26-31.48,452.26-231.48,483.66-483.74c1.42-0.08,2.91-0.08,4.33-0.08s2.91,0,4.33,0.08
		c31.4,252.34,231.4,452.33,483.66,483.74C988.55,496.85,988.55,498.27,988.55,499.68z"/>
</g>
</svg>
