<?xml version="1.0" encoding="utf-8"?>
<!-- Generator: Adobe Illustrator 26.0.0, SVG Export Plug-In . SVG Version: 6.00 Build 0)  -->
<svg version="1.1" id="Layer_1" xmlns="http://www.w3.org/2000/svg" xmlns:xlink="http://www.w3.org/1999/xlink" x="0px" y="0px"
	 viewBox="0 0 1554.89 324.77" style="enable-background:new 0 0 1554.89 324.77;" xml:space="preserve">
<style type="text/css">
	.st0{fill:#161616;}
	.st1{fill:#161616;}
</style>
<g>
	<g>
		<path class="st0" d="M159.38,159l69.41-105h-69.25l-57.29,91.37V54H42.53v216.76h59.72v-95.77l62.15,95.77h70.87L159.38,159z"/>
		<path class="st0" d="M362.74,49.34c3.74,8.6,8.12,16.85,13.07,24.73c33.09,8.36,56.98,31.41,65.18,63.06
			c7.85,4.56,16.08,8.58,24.6,11.99C459.95,94.59,419.47,55.38,362.74,49.34z M317.95,250.55c-32.74-8.45-56.4-31.21-64.74-62.42
			c-7.87-4.58-16.1-8.63-24.64-12.05c5.79,54.01,46.12,93.07,102.58,99.29C327.37,266.72,322.95,258.44,317.95,250.55z
			 M440.88,188.11c-8.32,31.32-32.03,54.15-64.81,62.53c-4.98,7.9-9.38,16.17-13.16,24.77c28.02-3.01,52.09-14.11,69.89-31.19
			c18.11-17.34,29.82-40.81,32.74-68.15C457.01,179.5,448.76,183.53,440.88,188.11z M228.53,149.09
			c8.52-3.41,16.72-7.43,24.57-12.01c8.25-31.52,32.09-54.5,65.12-62.93c4.95-7.9,9.36-16.17,13.09-24.77
			C274.62,55.57,234.19,94.81,228.53,149.09z"/>
		<path class="st0" d="M649.9,180.57c-6.06,24.09-24.97,39.75-49.04,39.75c-30.68,0-53.19-24.31-53.19-57.75
			c0-33.55,22.52-58.24,53.19-58.24c22.83,0,41.56,14.42,48.99,36.65h60.49c-8.8-54.94-52.8-92.45-109.6-92.45
			c-63.7,0-111.83,45.52-115.08,107.34c-0.11,2.21-0.18,4.45-0.18,6.7c0,2.28,0.07,4.51,0.18,6.75
			c3.3,61.47,51.4,106.94,115.08,106.94c57.73,0,101.99-38.68,110.24-95.68H649.9z"/>
		<path class="st0" d="M980.75,54h-59.63l-51.38,117.96L818.69,54h-59.63l-32.78,216.76h60.52l16.68-124.79l57.46,125.15h17.63
			l57.51-125.19l16.9,124.84h60.25L980.75,54z"/>
		<path class="st0" d="M1148.6,48.52c-69.67,0-119.39,47.62-119.39,113.87c0,66.24,49.72,113.87,119.39,113.87
			c69.52,0,119.06-47.44,119.06-113.87C1267.67,95.96,1218.12,48.52,1148.6,48.52z M1148.6,220.69c-32.98,0-57.22-24.55-57.22-58.3
			c0-33.73,24.24-58.28,57.22-58.28c33,0,56.89,24.37,56.89,58.28C1205.49,196.31,1181.6,220.69,1148.6,220.69z"/>
		<path class="st0" d="M1451.29,180.57c-6.08,24.09-24.99,39.75-49.04,39.75c-30.7,0-53.22-24.31-53.22-57.75
			c0-33.55,22.52-58.24,53.22-58.24c22.8,0,41.54,14.42,48.99,36.65h60.49c-8.8-54.94-52.82-92.45-109.62-92.45
			c-65.98,0-115.24,48.84-115.24,114.04c0,64.85,49.26,113.69,115.24,113.69c57.73,0,102.01-38.68,110.24-95.68H1451.29z"/>
	</g>
	<path class="st1" d="M478.85,162.38c0,0.4,0,0.79-0.02,1.19c-68.12,8.48-122.11,62.45-130.61,130.59
		c-0.38,0.02-0.79,0.02-1.17,0.02c-0.38,0-0.79,0-1.17-0.02c-8.5-68.12-62.49-122.09-130.61-130.59c-0.02-0.4-0.02-0.79-0.02-1.19
		c0-0.38,0-0.77,0.02-1.15c68.12-8.5,122.13-62.51,130.61-130.63c0.38-0.02,0.79-0.02,1.17-0.02c0.38,0,0.79,0,1.17,0.02
		c8.48,68.14,62.49,122.15,130.61,130.63C478.85,161.62,478.85,162,478.85,162.38z"/>
</g>
</svg>
