<svg width="491" height="78" viewBox="0 0 491 78" fill="none" xmlns="http://www.w3.org/2000/svg">
<path d="M38.967 37.8647L62.1124 2.81454H39.0246L19.9211 33.3235V2.81454H0V75.174H19.9211V43.2127L40.6482 75.1855H64.2772L38.967 37.8647Z" fill="#161616"/>
<path d="M106.791 1.25854C108.035 4.12849 109.497 6.88317 111.155 9.51107C122.187 12.3003 130.155 19.9996 132.896 30.5573C135.51 32.0787 138.262 33.4272 141.094 34.5568C139.206 16.369 125.71 3.27557 106.791 1.25854ZM91.8558 68.4313C80.9395 65.6075 73.0402 58.0119 70.2651 47.5925C67.6396 46.0596 64.899 44.7111 62.0433 43.57C63.9778 61.5965 77.4274 74.6437 96.2546 76.7184C94.9995 73.8254 93.5255 71.0707 91.8558 68.4313ZM132.85 47.581C130.074 58.035 122.164 65.6536 111.236 68.4543C109.578 71.0938 108.104 73.8485 106.848 76.7184C116.199 75.7156 124.225 72.0043 130.155 66.3105C136.2 60.5246 140.104 52.687 141.071 43.5585C138.227 44.7111 135.475 46.0596 132.85 47.581ZM62.0318 34.5568C64.876 33.4157 67.6051 32.0787 70.2305 30.5458C72.9826 20.0227 80.9395 12.358 91.948 9.53412C93.5946 6.89469 95.0685 4.14001 96.3122 1.27007C77.4044 3.34473 63.9202 16.4381 62.0318 34.5568Z" fill="#161616"/>
<path d="M202.562 45.0684C200.535 53.1134 194.236 58.3346 186.21 58.3346C175.974 58.3346 168.466 50.2204 168.466 39.0519C168.466 27.8487 175.974 19.6077 186.21 19.6077C193.822 19.6077 200.075 24.4255 202.55 31.8367H222.725C219.788 13.5105 205.118 0.993439 186.164 0.993439C164.919 0.993439 148.867 16.1845 147.785 36.8274C147.75 37.565 147.727 38.3142 147.727 39.0634C147.727 39.8241 147.75 40.5733 147.785 41.3109C148.879 61.827 164.931 77.0066 186.164 77.0066C205.418 77.0066 220.18 64.0976 222.932 45.0684H202.562Z" fill="#161616"/>
<path d="M312.899 2.81454H293.013L275.878 42.1869L258.848 2.81454H238.961L228.033 75.1739H248.219L253.781 33.5195L272.942 75.3007H278.826L298.01 33.5079L303.641 75.1855H323.735L312.899 2.81454Z" fill="#161616"/>
<path d="M368.874 0.993439C345.637 0.993439 329.055 16.8876 329.055 39.0058C329.055 61.1239 345.637 77.0181 368.874 77.0181C392.054 77.0181 408.578 61.1815 408.578 39.0058C408.59 16.83 392.066 0.993439 368.874 0.993439ZM368.874 58.4614C357.877 58.4614 349.794 50.2665 349.794 38.9942C349.794 27.7334 357.877 19.5386 368.874 19.5386C379.883 19.5386 387.851 27.6758 387.851 38.9942C387.851 50.3242 379.883 58.4614 368.874 58.4614Z" fill="#161616"/>
<path d="M469.827 45.0684C467.8 53.1134 461.49 58.3346 453.476 58.3346C443.239 58.3346 435.731 50.2204 435.731 39.0519C435.731 27.8487 443.239 19.6077 453.476 19.6077C461.076 19.6077 467.328 24.4255 469.815 31.8367H489.99C487.054 13.499 472.372 0.970398 453.43 0.970398C431.424 0.970398 414.992 17.268 414.992 39.0403C414.992 60.6859 431.424 76.995 453.43 76.995C472.683 76.995 487.445 64.0861 490.197 45.0568H469.827V45.0684Z" fill="#161616"/>
</svg>
